<svg xmlns="http://www.w3.org/2000/svg" xmlns:xlink="http://www.w3.org/1999/xlink" contentStyleType="text/css" data-diagram-type="ACTIVITY" height="517px" preserveAspectRatio="none" style="width:810px;height:517px;background:#FFFFFF;" version="1.1" viewBox="0 0 810 517" width="810px" zoomAndPan="magnify"><?plantuml $version$?><defs/><g><g class="title" data-source-line="1"><text fill="#000000" font-family="sans-serif" font-size="14" font-weight="700" lengthAdjust="spacing" textLength="193.7373" x="307.6157" y="33.1318">TPU Processing (Pre Egress)</text></g><rect fill="#F1F1F1" height="33.7988" rx="12.5" ry="12.5" style="stroke:#181818;stroke-width:0.5;" width="107.3926" x="349.7881" y="53.0986"/><text fill="#000000" font-family="sans-serif" font-size="12" lengthAdjust="spacing" textLength="87.3926" x="359.7881" y="74.3545">Execution Stage</text><ellipse cx="403.4844" cy="116.8975" fill="#222222" rx="10" ry="10" style="stroke:#222222;stroke-width:1;"/><rect fill="#555555" height="6" rx="2.5" ry="2.5" style="stroke:#555555;stroke-width:1;" width="774.9688" x="16" y="146.8975"/><rect fill="#F1F1F1" height="33.7988" rx="12.5" ry="12.5" style="stroke:#181818;stroke-width:0.5;" width="162.1016" x="127.6914" y="172.8975"/><text fill="#000000" font-family="sans-serif" font-size="12" lengthAdjust="spacing" textLength="142.1016" x="137.6914" y="194.1533">Liquidation Dequeue Drain</text><rect fill="#F1F1F1" height="33.7988" rx="12.5" ry="12.5" style="stroke:#181818;stroke-width:0.5;" width="310.2031" x="53.6406" y="226.6963"/><text fill="#000000" font-family="sans-serif" font-size="12" lengthAdjust="spacing" textLength="290.2031" x="63.6406" y="247.9521">Ingest signed blob and build transaction for Liquidation</text><rect fill="#F1F1F1" height="33.7988" rx="12.5" ry="12.5" style="stroke:#181818;stroke-width:0.5;" width="105.3652" x="156.0596" y="280.4951"/><text fill="#000000" font-family="sans-serif" font-size="12" lengthAdjust="spacing" textLength="85.3652" x="166.0596" y="301.751">optimize() batch</text><rect fill="#F1F1F1" height="33.7988" rx="12.5" ry="12.5" style="stroke:#181818;stroke-width:0.5;" width="94.7246" x="161.3799" y="334.2939"/><text fill="#000000" font-family="sans-serif" font-size="12" lengthAdjust="spacing" textLength="74.7246" x="171.3799" y="355.5498">sign and send</text><rect fill="#F1F1F1" height="33.7988" rx="12.5" ry="12.5" style="stroke:#181818;stroke-width:0.5;" width="361.4844" x="28" y="388.0928"/><text fill="#000000" font-family="sans-serif" font-size="12" lengthAdjust="spacing" textLength="341.4844" x="38" y="409.3486">Add to uncomfirmed transaction map (read by confirmation task)</text><rect fill="#F1F1F1" height="33.7988" rx="12.5" ry="12.5" style="stroke:#181818;stroke-width:0.5;" width="151.3965" x="522.5283" y="172.8975"/><text fill="#000000" font-family="sans-serif" font-size="12" lengthAdjust="spacing" textLength="131.3965" x="532.5283" y="194.1533">Order Fill Dequeue drain</text><rect fill="#F1F1F1" height="33.7988" rx="12.5" ry="12.5" style="stroke:#181818;stroke-width:0.5;" width="107.3867" x="544.5332" y="226.6963"/><text fill="#000000" font-family="sans-serif" font-size="12" lengthAdjust="spacing" textLength="87.3867" x="554.5332" y="247.9521">build transaction</text><rect fill="#F1F1F1" height="33.7988" rx="12.5" ry="12.5" style="stroke:#181818;stroke-width:0.5;" width="105.3652" x="545.5439" y="280.4951"/><text fill="#000000" font-family="sans-serif" font-size="12" lengthAdjust="spacing" textLength="85.3652" x="555.5439" y="301.751">optimize batch()</text><rect fill="#F1F1F1" height="33.7988" rx="12.5" ry="12.5" style="stroke:#181818;stroke-width:0.5;" width="96.7285" x="549.8623" y="334.2939"/><text fill="#000000" font-family="sans-serif" font-size="12" lengthAdjust="spacing" textLength="76.7285" x="559.8623" y="355.5498">Sign and send</text><rect fill="#F1F1F1" height="33.7988" rx="12.5" ry="12.5" style="stroke:#181818;stroke-width:0.5;" width="361.4844" x="417.4844" y="388.0928"/><text fill="#000000" font-family="sans-serif" font-size="12" lengthAdjust="spacing" textLength="341.4844" x="427.4844" y="409.3486">Add to uncomfirmed transaction map (read by confirmation task)</text><polygon fill="#F1F1F1" points="403.4844,431.8916,415.4844,443.8916,403.4844,455.8916,391.4844,443.8916,403.4844,431.8916" style="stroke:#181818;stroke-width:0.5;stroke-linejoin:miter;stroke-miterlimit:10;"/><ellipse cx="403.4844" cy="486.8916" fill="none" rx="11" ry="11" style="stroke:#222222;stroke-width:1;"/><ellipse cx="403.4844" cy="486.8916" fill="#222222" rx="6" ry="6" style="stroke:#222222;stroke-width:1;"/><line style="stroke:#181818;stroke-width:1;" x1="403.4844" x2="403.4844" y1="86.8975" y2="106.8975"/><polygon fill="#181818" points="399.4844,96.8975,403.4844,106.8975,407.4844,96.8975,403.4844,100.8975" style="stroke:#181818;stroke-width:1;stroke-linejoin:miter;stroke-miterlimit:10;"/><line style="stroke:#181818;stroke-width:1;" x1="208.7422" x2="208.7422" y1="206.6963" y2="226.6963"/><polygon fill="#181818" points="204.7422,216.6963,208.7422,226.6963,212.7422,216.6963,208.7422,220.6963" style="stroke:#181818;stroke-width:1;stroke-linejoin:miter;stroke-miterlimit:10;"/><line style="stroke:#181818;stroke-width:1;" x1="208.7422" x2="208.7422" y1="260.4951" y2="280.4951"/><polygon fill="#181818" points="204.7422,270.4951,208.7422,280.4951,212.7422,270.4951,208.7422,274.4951" style="stroke:#181818;stroke-width:1;stroke-linejoin:miter;stroke-miterlimit:10;"/><line style="stroke:#181818;stroke-width:1;" x1="208.7422" x2="208.7422" y1="314.2939" y2="334.2939"/><polygon fill="#181818" points="204.7422,324.2939,208.7422,334.2939,212.7422,324.2939,208.7422,328.2939" style="stroke:#181818;stroke-width:1;stroke-linejoin:miter;stroke-miterlimit:10;"/><line style="stroke:#181818;stroke-width:1;" x1="208.7422" x2="208.7422" y1="368.0928" y2="388.0928"/><polygon fill="#181818" points="204.7422,378.0928,208.7422,388.0928,212.7422,378.0928,208.7422,382.0928" style="stroke:#181818;stroke-width:1;stroke-linejoin:miter;stroke-miterlimit:10;"/><line style="stroke:#181818;stroke-width:1;" x1="598.2266" x2="598.2266" y1="206.6963" y2="226.6963"/><polygon fill="#181818" points="594.2266,216.6963,598.2266,226.6963,602.2266,216.6963,598.2266,220.6963" style="stroke:#181818;stroke-width:1;stroke-linejoin:miter;stroke-miterlimit:10;"/><line style="stroke:#181818;stroke-width:1;" x1="598.2266" x2="598.2266" y1="260.4951" y2="280.4951"/><polygon fill="#181818" points="594.2266,270.4951,598.2266,280.4951,602.2266,270.4951,598.2266,274.4951" style="stroke:#181818;stroke-width:1;stroke-linejoin:miter;stroke-miterlimit:10;"/><line style="stroke:#181818;stroke-width:1;" x1="598.2266" x2="598.2266" y1="314.2939" y2="334.2939"/><polygon fill="#181818" points="594.2266,324.2939,598.2266,334.2939,602.2266,324.2939,598.2266,328.2939" style="stroke:#181818;stroke-width:1;stroke-linejoin:miter;stroke-miterlimit:10;"/><line style="stroke:#181818;stroke-width:1;" x1="598.2266" x2="598.2266" y1="368.0928" y2="388.0928"/><polygon fill="#181818" points="594.2266,378.0928,598.2266,388.0928,602.2266,378.0928,598.2266,382.0928" style="stroke:#181818;stroke-width:1;stroke-linejoin:miter;stroke-miterlimit:10;"/><line style="stroke:#181818;stroke-width:1;" x1="208.7422" x2="208.7422" y1="152.8975" y2="172.8975"/><polygon fill="#181818" points="204.7422,162.8975,208.7422,172.8975,212.7422,162.8975,208.7422,166.8975" style="stroke:#181818;stroke-width:1;stroke-linejoin:miter;stroke-miterlimit:10;"/><line style="stroke:#181818;stroke-width:1;" x1="598.2266" x2="598.2266" y1="152.8975" y2="172.8975"/><polygon fill="#181818" points="594.2266,162.8975,598.2266,172.8975,602.2266,162.8975,598.2266,166.8975" style="stroke:#181818;stroke-width:1;stroke-linejoin:miter;stroke-miterlimit:10;"/><line style="stroke:#181818;stroke-width:1;" x1="208.7422" x2="208.7422" y1="421.8916" y2="443.8916"/><line style="stroke:#181818;stroke-width:1;" x1="208.7422" x2="391.4844" y1="443.8916" y2="443.8916"/><polygon fill="#181818" points="381.4844,439.8916,391.4844,443.8916,381.4844,447.8916,385.4844,443.8916" style="stroke:#181818;stroke-width:1;stroke-linejoin:miter;stroke-miterlimit:10;"/><line style="stroke:#181818;stroke-width:1;" x1="598.2266" x2="598.2266" y1="421.8916" y2="443.8916"/><line style="stroke:#181818;stroke-width:1;" x1="598.2266" x2="415.4844" y1="443.8916" y2="443.8916"/><polygon fill="#181818" points="425.4844,439.8916,415.4844,443.8916,425.4844,447.8916,421.4844,443.8916" style="stroke:#181818;stroke-width:1;stroke-linejoin:miter;stroke-miterlimit:10;"/><line style="stroke:#181818;stroke-width:1;" x1="403.4844" x2="403.4844" y1="126.8975" y2="146.8975"/><polygon fill="#181818" points="399.4844,136.8975,403.4844,146.8975,407.4844,136.8975,403.4844,140.8975" style="stroke:#181818;stroke-width:1;stroke-linejoin:miter;stroke-miterlimit:10;"/><line style="stroke:#181818;stroke-width:1;" x1="403.4844" x2="403.4844" y1="455.8916" y2="475.8916"/><polygon fill="#181818" points="399.4844,465.8916,403.4844,475.8916,407.4844,465.8916,403.4844,469.8916" style="stroke:#181818;stroke-width:1;stroke-linejoin:miter;stroke-miterlimit:10;"/><?plantuml-src hP7HQiCm34NV_HLwJ0hxY44x60mMQFS1YgrweecToZAi_VevJZOo-Ze_oP9rxhrOMGU2K_S1dKHBAN7mq7H2SF1IhgrvWiCNsQmS0nmLFPcaA6hEKIvc1szypUomZlTqpPG9ze8Sm40vEtWDdf92OX_8GJ_47Z2K8lFWG0L3Gbkt2t1BMzVZf3podPeMUbJxkRPdNEKa2cxjFRi2Z923ZUEPPQI__14dQ8ImQD_0nZ0_MNmhfajhQY90NxoNNE_YIE25X-4tbfjZLQr5xo72PlPZUp7Tj9lHyS7wlzWlC1X9wl_4wHi0?></g></svg>