<svg xmlns="http://www.w3.org/2000/svg" xmlns:xlink="http://www.w3.org/1999/xlink" contentStyleType="text/css" data-diagram-type="DESCRIPTION" height="135px" preserveAspectRatio="none" style="width:541px;height:135px;background:#FFFFFF;" version="1.1" viewBox="0 0 541 135" width="541px" zoomAndPan="magnify"><?plantuml $version$?><defs/><g><!--entity Keeper--><g class="entity" data-qualified-name="Keeper" data-source-line="1" id="ent0001"><polygon fill="#F1F1F1" points="16,74.18,26,64.18,126.0479,64.18,126.0479,100.2786,116.0479,110.2786,16,110.2786,16,74.18" style="stroke:#181818;stroke-width:0.5;stroke-linejoin:miter;stroke-miterlimit:10;"/><line style="stroke:#181818;stroke-width:0.5;" x1="116.0479" x2="126.0479" y1="74.18" y2="64.18"/><line style="stroke:#181818;stroke-width:0.5;" x1="16" x2="116.0479" y1="74.18" y2="74.18"/><line style="stroke:#181818;stroke-width:0.5;" x1="116.0479" x2="116.0479" y1="74.18" y2="110.2786"/><text fill="#000000" font-family="sans-serif" font-size="14" lengthAdjust="spacing" textLength="70.0479" x="31" y="97.3118">Keeper Bot</text></g><!--entity l1--><g class="entity" data-qualified-name="l1" data-source-line="2" id="ent0002"><polygon fill="#F1F1F1" points="421.39,74.18,431.39,64.18,516.6586,64.18,516.6586,100.2786,506.6586,110.2786,421.39,110.2786,421.39,74.18" style="stroke:#181818;stroke-width:0.5;stroke-linejoin:miter;stroke-miterlimit:10;"/><line style="stroke:#181818;stroke-width:0.5;" x1="506.6586" x2="516.6586" y1="74.18" y2="64.18"/><line style="stroke:#181818;stroke-width:0.5;" x1="421.39" x2="506.6586" y1="74.18" y2="74.18"/><line style="stroke:#181818;stroke-width:0.5;" x1="506.6586" x2="506.6586" y1="74.18" y2="110.2786"/><text fill="#000000" font-family="sans-serif" font-size="14" lengthAdjust="spacing" textLength="55.2686" x="436.39" y="97.3118">Leader 1</text></g><!--entity l2--><g class="entity" data-qualified-name="l2" data-source-line="3" id="ent0003"><polygon fill="#F1F1F1" points="291.39,74.18,301.39,64.18,386.6586,64.18,386.6586,100.2786,376.6586,110.2786,291.39,110.2786,291.39,74.18" style="stroke:#181818;stroke-width:0.5;stroke-linejoin:miter;stroke-miterlimit:10;"/><line style="stroke:#181818;stroke-width:0.5;" x1="376.6586" x2="386.6586" y1="74.18" y2="64.18"/><line style="stroke:#181818;stroke-width:0.5;" x1="291.39" x2="376.6586" y1="74.18" y2="74.18"/><line style="stroke:#181818;stroke-width:0.5;" x1="376.6586" x2="376.6586" y1="74.18" y2="110.2786"/><text fill="#000000" font-family="sans-serif" font-size="14" lengthAdjust="spacing" textLength="55.2686" x="306.39" y="97.3118">Leader 2</text></g><!--entity l3--><g class="entity" data-qualified-name="l3" data-source-line="4" id="ent0004"><polygon fill="#F1F1F1" points="161.39,74.18,171.39,64.18,256.6586,64.18,256.6586,100.2786,246.6586,110.2786,161.39,110.2786,161.39,74.18" style="stroke:#181818;stroke-width:0.5;stroke-linejoin:miter;stroke-miterlimit:10;"/><line style="stroke:#181818;stroke-width:0.5;" x1="246.6586" x2="256.6586" y1="74.18" y2="64.18"/><line style="stroke:#181818;stroke-width:0.5;" x1="161.39" x2="246.6586" y1="74.18" y2="74.18"/><line style="stroke:#181818;stroke-width:0.5;" x1="246.6586" x2="246.6586" y1="74.18" y2="110.2786"/><text fill="#000000" font-family="sans-serif" font-size="14" lengthAdjust="spacing" textLength="55.2686" x="176.39" y="97.3118">Leader 3</text></g><!--link Keeper to l1--><g class="link" data-entity-1="ent0001" data-entity-2="ent0002" data-link-type="dependency" data-source-line="6" id="lnk5"><path d="M101.42,63.91 C118.17,52.53 139.91,40.05 161.52,34.18 C258.03,7.98 290.58,6 386.52,34.18 C406.62,40.08 422.4481,49.5625 437.6281,60.9325" fill="none" id="Keeper-to-l1" style="stroke:#181818;stroke-width:1;"/><polygon fill="#181818" points="441.63,63.93,436.8246,55.333,437.6281,60.9325,432.0286,61.7361,441.63,63.93" style="stroke:#181818;stroke-width:1;stroke-linejoin:miter;stroke-miterlimit:10;"/></g><!--link Keeper to l2--><g class="link" data-entity-1="ent0001" data-entity-2="ent0003" data-link-type="dependency" data-source-line="7" id="lnk6"><path d="M101.42,63.91 C118.17,52.53 139.91,40.05 161.52,34.18 C202.27,23.12 216.01,22.28 256.52,34.18 C276.62,40.08 292.4481,49.5625 307.6281,60.9325" fill="none" id="Keeper-to-l2" style="stroke:#181818;stroke-width:1;"/><polygon fill="#181818" points="311.63,63.93,306.8246,55.333,307.6281,60.9325,302.0286,61.7361,311.63,63.93" style="stroke:#181818;stroke-width:1;stroke-linejoin:miter;stroke-miterlimit:10;"/></g><!--link Keeper to l3--><g class="link" data-entity-1="ent0001" data-entity-2="ent0004" data-link-type="dependency" data-source-line="8" id="lnk7"><path d="M126.55,87.23 C138.04,87.23 144.53,87.23 156.02,87.23" fill="none" id="Keeper-to-l3" style="stroke:#181818;stroke-width:1;"/><polygon fill="#181818" points="161.02,87.23,152.02,83.23,156.02,87.23,152.02,91.23,161.02,87.23" style="stroke:#181818;stroke-width:1;stroke-linejoin:miter;stroke-miterlimit:10;"/></g><?plantuml-src oyjFILLGyavDBKWjKd3ABr5II2nMW72vyi1oFgc9AK0vGx1CZY6gg154r0XLr1WYQip51JLOrmwa4ubZXCmn1W00?></g></svg>