<svg xmlns="http://www.w3.org/2000/svg" xmlns:xlink="http://www.w3.org/1999/xlink" contentStyleType="text/css" data-diagram-type="ACTIVITY" height="1058px" preserveAspectRatio="none" style="width:669px;height:1058px;background:#FFFFFF;" version="1.1" viewBox="0 0 669 1058" width="669px" zoomAndPan="magnify"><?plantuml $version$?><defs/><g><g class="title" data-source-line="1"><text fill="#000000" font-family="sans-serif" font-size="14" font-weight="700" lengthAdjust="spacing" textLength="413.8477" x="126.8906" y="33.1318">Order Keeper &#8212; Data Flow (single keeper, pinned to one CCD)</text></g><ellipse cx="332.8145" cy="62.0986" fill="#222222" rx="10" ry="10" style="stroke:#222222;stroke-width:1;"/><rect fill="#F1F1F1" height="33.7988" rx="12.5" ry="12.5" style="stroke:#181818;stroke-width:0.5;" width="59.3516" x="303.1387" y="92.0986"/><text fill="#000000" font-family="sans-serif" font-size="12" lengthAdjust="spacing" textLength="39.3516" x="313.1387" y="113.3545">Ingress</text><rect fill="#555555" height="6" rx="2.5" ry="2.5" style="stroke:#555555;stroke-width:1;" width="567.5742" x="49.0273" y="145.8975"/><rect fill="#F1F1F1" height="33.7988" rx="12.5" ry="12.5" style="stroke:#181818;stroke-width:0.5;" width="105.3594" x="138.2412" y="171.8975"/><text fill="#000000" font-family="sans-serif" font-size="12" lengthAdjust="spacing" textLength="85.3594" x="148.2412" y="193.1533">Process Geyser</text><rect fill="#F1F1F1" height="33.7988" rx="12.5" ry="12.5" style="stroke:#181818;stroke-width:0.5;" width="255.7871" x="63.0273" y="225.6963"/><text fill="#000000" font-family="sans-serif" font-size="12" lengthAdjust="spacing" textLength="235.7871" x="73.0273" y="246.9521">Feed Channel (Consumer = Executor stage)</text><rect fill="#F1F1F1" height="33.7988" rx="12.5" ry="12.5" style="stroke:#181818;stroke-width:0.5;" width="144.0254" x="402.6953" y="171.8975"/><text fill="#000000" font-family="sans-serif" font-size="12" lengthAdjust="spacing" textLength="124.0254" x="412.6953" y="193.1533">Process Pyth (Hermes)</text><rect fill="#F1F1F1" height="33.7988" rx="12.5" ry="12.5" style="stroke:#181818;stroke-width:0.5;" width="255.7871" x="346.8145" y="225.6963"/><text fill="#000000" font-family="sans-serif" font-size="12" lengthAdjust="spacing" textLength="235.7871" x="356.8145" y="246.9521">Feed Channel (Consumer = Executor stage)</text><polygon fill="#F1F1F1" points="332.8145,269.4951,344.8145,281.4951,332.8145,293.4951,320.8145,281.4951,332.8145,269.4951" style="stroke:#181818;stroke-width:0.5;stroke-linejoin:miter;stroke-miterlimit:10;"/><rect fill="#555555" height="6" rx="2.5" ry="2.5" style="stroke:#555555;stroke-width:1;" width="633.6289" x="16" y="313.4951"/><rect fill="#F1F1F1" height="33.7988" rx="12.5" ry="12.5" style="stroke:#181818;stroke-width:0.5;" width="308.1348" x="37.6914" y="339.4951"/><text fill="#000000" font-family="sans-serif" font-size="12" lengthAdjust="spacing" textLength="288.1348" x="47.6914" y="360.751">Drain Price channels and New Positions (main thread)</text><rect fill="#F1F1F1" height="33.7988" rx="12.5" ry="12.5" style="stroke:#181818;stroke-width:0.5;" width="182.0762" x="100.7207" y="393.2939"/><text fill="#000000" font-family="sans-serif" font-size="12" lengthAdjust="spacing" textLength="162.0762" x="110.7207" y="414.5498">Check Markets in price update</text><rect fill="#F1F1F1" height="33.7988" rx="12.5" ry="12.5" style="stroke:#181818;stroke-width:0.5;" width="126.7168" x="128.4004" y="447.0928"/><text fill="#000000" font-family="sans-serif" font-size="12" lengthAdjust="spacing" textLength="106.7168" x="138.4004" y="468.3486">Hash pair name/key</text><rect fill="#F1F1F1" height="33.7988" rx="12.5" ry="12.5" style="stroke:#181818;stroke-width:0.5;" width="327.5176" x="28" y="500.8916"/><text fill="#000000" font-family="sans-serif" font-size="12" lengthAdjust="spacing" textLength="307.5176" x="38" y="522.1475">Fetch and sweep against DS mentioned in executor stage</text><rect fill="#F1F1F1" height="33.7988" rx="12.5" ry="12.5" style="stroke:#181818;stroke-width:0.5;" width="230.7852" x="76.3662" y="554.6904"/><text fill="#000000" font-family="sans-serif" font-size="12" lengthAdjust="spacing" textLength="210.7852" x="86.3662" y="575.9463">Push to Liquidity channel for TPU stage</text><rect fill="#F1F1F1" height="33.7988" rx="12.5" ry="12.5" style="stroke:#181818;stroke-width:0.5;" width="254.1113" x="383.5176" y="393.2939"/><text fill="#000000" font-family="sans-serif" font-size="12" lengthAdjust="spacing" textLength="234.1113" x="393.5176" y="414.5498">Drain new orders channels (off main thread)</text><rect fill="#F1F1F1" height="33.7988" rx="12.5" ry="12.5" style="stroke:#181818;stroke-width:0.5;" width="222.7754" x="399.1855" y="447.0928"/><text fill="#000000" font-family="sans-serif" font-size="12" lengthAdjust="spacing" textLength="202.7754" x="409.1855" y="468.3486">fetch necessary accounts from update</text><rect fill="#F1F1F1" height="33.7988" rx="12.5" ry="12.5" style="stroke:#181818;stroke-width:0.5;" width="217.4316" x="401.8574" y="500.8916"/><text fill="#000000" font-family="sans-serif" font-size="12" lengthAdjust="spacing" textLength="197.4316" x="411.8574" y="522.1475">Push to Order channel for TPU stage</text><polygon fill="#F1F1F1" points="332.8145,598.4893,344.8145,610.4893,332.8145,622.4893,320.8145,610.4893,332.8145,598.4893" style="stroke:#181818;stroke-width:0.5;stroke-linejoin:miter;stroke-miterlimit:10;"/><rect fill="#F1F1F1" height="33.7988" rx="12.5" ry="12.5" style="stroke:#181818;stroke-width:0.5;" width="78.6934" x="293.4678" y="642.4893"/><text fill="#000000" font-family="sans-serif" font-size="12" lengthAdjust="spacing" textLength="58.6934" x="303.4678" y="663.7451">TPU Stage</text><rect fill="#555555" height="6" rx="2.5" ry="2.5" style="stroke:#555555;stroke-width:1;" width="357.4805" x="154.0742" y="696.2881"/><rect fill="#F1F1F1" height="33.7988" rx="12.5" ry="12.5" style="stroke:#181818;stroke-width:0.5;" width="144.0723" x="181.4189" y="722.2881"/><text fill="#000000" font-family="sans-serif" font-size="12" lengthAdjust="spacing" textLength="124.0723" x="191.4189" y="743.5439">Drain Liquidity Channel</text><rect fill="#F1F1F1" height="33.7988" rx="12.5" ry="12.5" style="stroke:#181818;stroke-width:0.5;" width="108.7168" x="199.0967" y="791.0869"/><text fill="#000000" font-family="sans-serif" font-size="12" lengthAdjust="spacing" textLength="88.7168" x="209.0967" y="812.3428">Build transaction</text><rect fill="#F1F1F1" height="33.7988" rx="12.5" ry="12.5" style="stroke:#181818;stroke-width:0.5;" width="170.7617" x="168.0742" y="859.8857"/><text fill="#000000" font-family="sans-serif" font-size="12" lengthAdjust="spacing" textLength="150.7617" x="178.0742" y="881.1416">Fetch signed blob and insert</text><rect fill="#F1F1F1" height="33.7988" rx="12.5" ry="12.5" style="stroke:#181818;stroke-width:0.5;" width="96.7285" x="205.0908" y="928.6846"/><text fill="#000000" font-family="sans-serif" font-size="12" lengthAdjust="spacing" textLength="76.7285" x="215.0908" y="949.9404">Sign and send</text><rect fill="#F1F1F1" height="33.7988" rx="12.5" ry="12.5" style="stroke:#181818;stroke-width:0.5;" width="130.7188" x="366.8359" y="756.6875"/><text fill="#000000" font-family="sans-serif" font-size="12" lengthAdjust="spacing" textLength="110.7188" x="376.8359" y="777.9434">Drain Order Channel</text><rect fill="#F1F1F1" height="33.7988" rx="12.5" ry="12.5" style="stroke:#181818;stroke-width:0.5;" width="108.7168" x="377.8369" y="825.4863"/><text fill="#000000" font-family="sans-serif" font-size="12" lengthAdjust="spacing" textLength="88.7168" x="387.8369" y="846.7422">Build transaction</text><rect fill="#F1F1F1" height="33.7988" rx="12.5" ry="12.5" style="stroke:#181818;stroke-width:0.5;" width="96.7285" x="383.8311" y="894.2852"/><text fill="#000000" font-family="sans-serif" font-size="12" lengthAdjust="spacing" textLength="76.7285" x="393.8311" y="915.541">Sign and send</text><polygon fill="#F1F1F1" points="332.8145,972.4834,344.8145,984.4834,332.8145,996.4834,320.8145,984.4834,332.8145,972.4834" style="stroke:#181818;stroke-width:0.5;stroke-linejoin:miter;stroke-miterlimit:10;"/><ellipse cx="332.8145" cy="1027.4834" fill="none" rx="11" ry="11" style="stroke:#222222;stroke-width:1;"/><ellipse cx="332.8145" cy="1027.4834" fill="#222222" rx="6" ry="6" style="stroke:#222222;stroke-width:1;"/><line style="stroke:#181818;stroke-width:1;" x1="332.8145" x2="332.8145" y1="72.0986" y2="92.0986"/><polygon fill="#181818" points="328.8145,82.0986,332.8145,92.0986,336.8145,82.0986,332.8145,86.0986" style="stroke:#181818;stroke-width:1;stroke-linejoin:miter;stroke-miterlimit:10;"/><line style="stroke:#181818;stroke-width:1;" x1="190.9209" x2="190.9209" y1="205.6963" y2="225.6963"/><polygon fill="#181818" points="186.9209,215.6963,190.9209,225.6963,194.9209,215.6963,190.9209,219.6963" style="stroke:#181818;stroke-width:1;stroke-linejoin:miter;stroke-miterlimit:10;"/><line style="stroke:#181818;stroke-width:1;" x1="474.708" x2="474.708" y1="205.6963" y2="225.6963"/><polygon fill="#181818" points="470.708,215.6963,474.708,225.6963,478.708,215.6963,474.708,219.6963" style="stroke:#181818;stroke-width:1;stroke-linejoin:miter;stroke-miterlimit:10;"/><line style="stroke:#181818;stroke-width:1;" x1="190.9209" x2="190.9209" y1="151.8975" y2="171.8975"/><polygon fill="#181818" points="186.9209,161.8975,190.9209,171.8975,194.9209,161.8975,190.9209,165.8975" style="stroke:#181818;stroke-width:1;stroke-linejoin:miter;stroke-miterlimit:10;"/><line style="stroke:#181818;stroke-width:1;" x1="474.708" x2="474.708" y1="151.8975" y2="171.8975"/><polygon fill="#181818" points="470.708,161.8975,474.708,171.8975,478.708,161.8975,474.708,165.8975" style="stroke:#181818;stroke-width:1;stroke-linejoin:miter;stroke-miterlimit:10;"/><line style="stroke:#181818;stroke-width:1;" x1="190.9209" x2="190.9209" y1="259.4951" y2="281.4951"/><line style="stroke:#181818;stroke-width:1;" x1="190.9209" x2="320.8145" y1="281.4951" y2="281.4951"/><polygon fill="#181818" points="310.8145,277.4951,320.8145,281.4951,310.8145,285.4951,314.8145,281.4951" style="stroke:#181818;stroke-width:1;stroke-linejoin:miter;stroke-miterlimit:10;"/><line style="stroke:#181818;stroke-width:1;" x1="474.708" x2="474.708" y1="259.4951" y2="281.4951"/><line style="stroke:#181818;stroke-width:1;" x1="474.708" x2="344.8145" y1="281.4951" y2="281.4951"/><polygon fill="#181818" points="354.8145,277.4951,344.8145,281.4951,354.8145,285.4951,350.8145,281.4951" style="stroke:#181818;stroke-width:1;stroke-linejoin:miter;stroke-miterlimit:10;"/><line style="stroke:#181818;stroke-width:1;" x1="332.8145" x2="332.8145" y1="125.8975" y2="145.8975"/><polygon fill="#181818" points="328.8145,135.8975,332.8145,145.8975,336.8145,135.8975,332.8145,139.8975" style="stroke:#181818;stroke-width:1;stroke-linejoin:miter;stroke-miterlimit:10;"/><line style="stroke:#181818;stroke-width:1;" x1="191.7588" x2="191.7588" y1="373.2939" y2="393.2939"/><polygon fill="#181818" points="187.7588,383.2939,191.7588,393.2939,195.7588,383.2939,191.7588,387.2939" style="stroke:#181818;stroke-width:1;stroke-linejoin:miter;stroke-miterlimit:10;"/><line style="stroke:#181818;stroke-width:1;" x1="191.7588" x2="191.7588" y1="427.0928" y2="447.0928"/><polygon fill="#181818" points="187.7588,437.0928,191.7588,447.0928,195.7588,437.0928,191.7588,441.0928" style="stroke:#181818;stroke-width:1;stroke-linejoin:miter;stroke-miterlimit:10;"/><line style="stroke:#181818;stroke-width:1;" x1="191.7588" x2="191.7588" y1="480.8916" y2="500.8916"/><polygon fill="#181818" points="187.7588,490.8916,191.7588,500.8916,195.7588,490.8916,191.7588,494.8916" style="stroke:#181818;stroke-width:1;stroke-linejoin:miter;stroke-miterlimit:10;"/><line style="stroke:#181818;stroke-width:1;" x1="191.7588" x2="191.7588" y1="534.6904" y2="554.6904"/><polygon fill="#181818" points="187.7588,544.6904,191.7588,554.6904,195.7588,544.6904,191.7588,548.6904" style="stroke:#181818;stroke-width:1;stroke-linejoin:miter;stroke-miterlimit:10;"/><line style="stroke:#181818;stroke-width:1;" x1="510.5732" x2="510.5732" y1="427.0928" y2="447.0928"/><polygon fill="#181818" points="506.5732,437.0928,510.5732,447.0928,514.5732,437.0928,510.5732,441.0928" style="stroke:#181818;stroke-width:1;stroke-linejoin:miter;stroke-miterlimit:10;"/><line style="stroke:#181818;stroke-width:1;" x1="510.5732" x2="510.5732" y1="480.8916" y2="500.8916"/><polygon fill="#181818" points="506.5732,490.8916,510.5732,500.8916,514.5732,490.8916,510.5732,494.8916" style="stroke:#181818;stroke-width:1;stroke-linejoin:miter;stroke-miterlimit:10;"/><line style="stroke:#181818;stroke-width:1;" x1="191.7588" x2="191.7588" y1="319.4951" y2="339.4951"/><polygon fill="#181818" points="187.7588,329.4951,191.7588,339.4951,195.7588,329.4951,191.7588,333.4951" style="stroke:#181818;stroke-width:1;stroke-linejoin:miter;stroke-miterlimit:10;"/><line style="stroke:#181818;stroke-width:1;" x1="510.5732" x2="510.5732" y1="319.4951" y2="393.2939"/><polygon fill="#181818" points="506.5732,383.2939,510.5732,393.2939,514.5732,383.2939,510.5732,387.2939" style="stroke:#181818;stroke-width:1;stroke-linejoin:miter;stroke-miterlimit:10;"/><line style="stroke:#181818;stroke-width:1;" x1="191.7588" x2="191.7588" y1="588.4893" y2="610.4893"/><line style="stroke:#181818;stroke-width:1;" x1="191.7588" x2="320.8145" y1="610.4893" y2="610.4893"/><polygon fill="#181818" points="310.8145,606.4893,320.8145,610.4893,310.8145,614.4893,314.8145,610.4893" style="stroke:#181818;stroke-width:1;stroke-linejoin:miter;stroke-miterlimit:10;"/><line style="stroke:#181818;stroke-width:1;" x1="510.5732" x2="510.5732" y1="534.6904" y2="610.4893"/><line style="stroke:#181818;stroke-width:1;" x1="510.5732" x2="344.8145" y1="610.4893" y2="610.4893"/><polygon fill="#181818" points="354.8145,606.4893,344.8145,610.4893,354.8145,614.4893,350.8145,610.4893" style="stroke:#181818;stroke-width:1;stroke-linejoin:miter;stroke-miterlimit:10;"/><line style="stroke:#181818;stroke-width:1;" x1="332.8145" x2="332.8145" y1="293.4951" y2="313.4951"/><polygon fill="#181818" points="328.8145,303.4951,332.8145,313.4951,336.8145,303.4951,332.8145,307.4951" style="stroke:#181818;stroke-width:1;stroke-linejoin:miter;stroke-miterlimit:10;"/><line style="stroke:#181818;stroke-width:1;" x1="332.8145" x2="332.8145" y1="622.4893" y2="642.4893"/><polygon fill="#181818" points="328.8145,632.4893,332.8145,642.4893,336.8145,632.4893,332.8145,636.4893" style="stroke:#181818;stroke-width:1;stroke-linejoin:miter;stroke-miterlimit:10;"/><line style="stroke:#181818;stroke-width:1;" x1="253.4551" x2="253.4551" y1="756.0869" y2="791.0869"/><polygon fill="#181818" points="249.4551,781.0869,253.4551,791.0869,257.4551,781.0869,253.4551,785.0869" style="stroke:#181818;stroke-width:1;stroke-linejoin:miter;stroke-miterlimit:10;"/><line style="stroke:#181818;stroke-width:1;" x1="253.4551" x2="253.4551" y1="824.8857" y2="859.8857"/><polygon fill="#181818" points="249.4551,849.8857,253.4551,859.8857,257.4551,849.8857,253.4551,853.8857" style="stroke:#181818;stroke-width:1;stroke-linejoin:miter;stroke-miterlimit:10;"/><line style="stroke:#181818;stroke-width:1;" x1="253.4551" x2="253.4551" y1="893.6846" y2="928.6846"/><polygon fill="#181818" points="249.4551,918.6846,253.4551,928.6846,257.4551,918.6846,253.4551,922.6846" style="stroke:#181818;stroke-width:1;stroke-linejoin:miter;stroke-miterlimit:10;"/><line style="stroke:#181818;stroke-width:1;" x1="432.1953" x2="432.1953" y1="790.4863" y2="825.4863"/><polygon fill="#181818" points="428.1953,815.4863,432.1953,825.4863,436.1953,815.4863,432.1953,819.4863" style="stroke:#181818;stroke-width:1;stroke-linejoin:miter;stroke-miterlimit:10;"/><line style="stroke:#181818;stroke-width:1;" x1="432.1953" x2="432.1953" y1="859.2852" y2="894.2852"/><polygon fill="#181818" points="428.1953,884.2852,432.1953,894.2852,436.1953,884.2852,432.1953,888.2852" style="stroke:#181818;stroke-width:1;stroke-linejoin:miter;stroke-miterlimit:10;"/><line style="stroke:#181818;stroke-width:1;" x1="253.4551" x2="253.4551" y1="702.2881" y2="722.2881"/><polygon fill="#181818" points="249.4551,712.2881,253.4551,722.2881,257.4551,712.2881,253.4551,716.2881" style="stroke:#181818;stroke-width:1;stroke-linejoin:miter;stroke-miterlimit:10;"/><line style="stroke:#181818;stroke-width:1;" x1="432.1953" x2="432.1953" y1="702.2881" y2="756.6875"/><polygon fill="#181818" points="428.1953,746.6875,432.1953,756.6875,436.1953,746.6875,432.1953,750.6875" style="stroke:#181818;stroke-width:1;stroke-linejoin:miter;stroke-miterlimit:10;"/><line style="stroke:#181818;stroke-width:1;" x1="253.4551" x2="253.4551" y1="962.4834" y2="984.4834"/><line style="stroke:#181818;stroke-width:1;" x1="253.4551" x2="320.8145" y1="984.4834" y2="984.4834"/><polygon fill="#181818" points="310.8145,980.4834,320.8145,984.4834,310.8145,988.4834,314.8145,984.4834" style="stroke:#181818;stroke-width:1;stroke-linejoin:miter;stroke-miterlimit:10;"/><line style="stroke:#181818;stroke-width:1;" x1="432.1953" x2="432.1953" y1="928.084" y2="984.4834"/><line style="stroke:#181818;stroke-width:1;" x1="432.1953" x2="344.8145" y1="984.4834" y2="984.4834"/><polygon fill="#181818" points="354.8145,980.4834,344.8145,984.4834,354.8145,988.4834,350.8145,984.4834" style="stroke:#181818;stroke-width:1;stroke-linejoin:miter;stroke-miterlimit:10;"/><line style="stroke:#181818;stroke-width:1;" x1="332.8145" x2="332.8145" y1="676.2881" y2="696.2881"/><polygon fill="#181818" points="328.8145,686.2881,332.8145,696.2881,336.8145,686.2881,332.8145,690.2881" style="stroke:#181818;stroke-width:1;stroke-linejoin:miter;stroke-miterlimit:10;"/><line style="stroke:#181818;stroke-width:1;" x1="332.8145" x2="332.8145" y1="996.4834" y2="1016.4834"/><polygon fill="#181818" points="328.8145,1006.4834,332.8145,1016.4834,336.8145,1006.4834,332.8145,1010.4834" style="stroke:#181818;stroke-width:1;stroke-linejoin:miter;stroke-miterlimit:10;"/><?plantuml-src dL99Rjmm4Bph5NNmGGDauBk3044q7Zl89c3i1xIfbaH88XMIoaItF28lp4lIsaOUBq0GNGYnczLLrGK47Mh6DvUnmoVcLeu_ltvZHu6mh-qHiTUca9PgBBv1gutX3C726aQIx3QH3-H2jCL7KpZsFigjgoBCtnQfiqgkSSEzP_Uei6S1IaeIm1fnOetl6fd_3jS_MNN1EWXomPiH45IGDY_0fdqe4T-oQzXl_WTzUHAnoI0j1QyAjjWv6Il3j6Ae2Ss3fFCh7v5QhuCMQCJDq1PAnvHDa5T9oQh25t8L1m-fjYD8rsOK-EtKSqk-H4lQmL33bnNtSs7FGPNZ77yKvoVrFc1t48fcc2dg19FFnCoFqqvGPKEVzVTEPphq2tE8CDobzqlt4sCNjKQasI4IVfKSspp7Sv7voDFmi0foFKWfsndHcplRd6jTM4rXUuNHkeFjU7qOhXybQg6uIfjNl9G_TBgMU3eodjJWKtJAmy3Kws9mxg6s3wExOYfBUEUUWrGdquN7izWjioS1_pht77FLTugT3xQLl_TIwfewYYv-YF42SF4N?></g></svg>