<svg xmlns="http://www.w3.org/2000/svg" xmlns:xlink="http://www.w3.org/1999/xlink" contentStyleType="text/css" data-diagram-type="DESCRIPTION" height="166px" preserveAspectRatio="none" style="width:751px;height:166px;background:#FFFFFF;" version="1.1" viewBox="0 0 751 166" width="751px" zoomAndPan="magnify"><?plantuml $version$?><defs/><g><!--entity Geyser--><g class="entity" data-qualified-name="Geyser" data-source-line="1" id="ent0001"><rect fill="#F1F1F1" height="36.0986" rx="2.5" ry="2.5" style="stroke:#181818;stroke-width:0.5;" width="111.0342" x="7" y="92.62"/><text fill="#000000" font-family="sans-serif" font-size="14" lengthAdjust="spacing" textLength="91.0342" x="17" y="115.7518">Geyser source</text></g><!--entity Price--><g class="entity" data-qualified-name="Price" data-source-line="2" id="ent0002"><rect fill="#F1F1F1" height="36.0986" rx="2.5" ry="2.5" style="stroke:#181818;stroke-width:0.5;" width="97.8066" x="152.61" y="92.62"/><text fill="#000000" font-family="sans-serif" font-size="14" lengthAdjust="spacing" textLength="77.8066" x="162.61" y="115.7518">Price source</text></g><!--entity HUB--><g class="entity" data-qualified-name="HUB" data-source-line="4" id="ent0003"><rect fill="#F1F1F1" height="84.3945" rx="2.5" ry="2.5" style="stroke:#181818;stroke-width:0.5;" width="111.8203" x="285.61" y="68.48"/><text fill="#000000" font-family="sans-serif" font-size="14" lengthAdjust="spacing" textLength="66.917" x="295.61" y="91.6118">Dispatcher</text><text fill="#000000" font-family="sans-serif" font-size="14" lengthAdjust="spacing" textLength="3.8896" x="295.61" y="107.7105">&#160;</text><text fill="#000000" font-family="sans-serif" font-size="14" lengthAdjust="spacing" textLength="91.8203" x="295.61" y="123.8091">merges inputs,</text><text fill="#000000" font-family="sans-serif" font-size="14" lengthAdjust="spacing" textLength="87.9375" x="295.61" y="139.9077">routes by type</text></g><!--entity KA--><g class="entity" data-qualified-name="KA" data-source-line="6" id="ent0004"><rect fill="#F1F1F1" height="36.0986" rx="2.5" ry="2.5" style="stroke:#181818;stroke-width:0.5;" width="78.3721" x="659.33" y="92.62"/><text fill="#000000" font-family="sans-serif" font-size="14" lengthAdjust="spacing" textLength="58.3721" x="669.33" y="115.7518">Keeper A</text></g><!--entity KB--><g class="entity" data-qualified-name="KB" data-source-line="7" id="ent0005"><rect fill="#F1F1F1" height="36.0986" rx="2.5" ry="2.5" style="stroke:#181818;stroke-width:0.5;" width="78.3721" x="546.33" y="92.62"/><text fill="#000000" font-family="sans-serif" font-size="14" lengthAdjust="spacing" textLength="58.3721" x="556.33" y="115.7518">Keeper B</text></g><!--entity KC--><g class="entity" data-qualified-name="KC" data-source-line="8" id="ent0006"><rect fill="#F1F1F1" height="36.0986" rx="2.5" ry="2.5" style="stroke:#181818;stroke-width:0.5;" width="79.1445" x="431.94" y="92.62"/><text fill="#000000" font-family="sans-serif" font-size="14" lengthAdjust="spacing" textLength="59.1445" x="441.94" y="115.7518">Keeper C</text></g><!--link Geyser to HUB--><g class="link" data-entity-1="ent0001" data-entity-2="ent0003" data-link-type="dependency" data-source-line="10" id="lnk7"><path d="M78.35,92.31 C94.9,74.65 122.66,49.1 153.02,38.48 C193.71,24.23 209.29,24.34 250.02,38.48 C267.99,44.71 281.2419,52.9196 295.7019,64.8396" fill="none" id="Geyser-to-HUB" style="stroke:#181818;stroke-width:1;"/><polygon fill="#181818" points="299.56,68.02,295.1597,59.2088,295.7019,64.8396,290.0711,65.3818,299.56,68.02" style="stroke:#181818;stroke-width:1;stroke-linejoin:miter;stroke-miterlimit:10;"/></g><!--link Price to HUB--><g class="link" data-entity-1="ent0002" data-entity-2="ent0003" data-link-type="dependency" data-source-line="11" id="lnk8"><path d="M250.74,110.67 C262.2,110.67 268.67,110.67 280.13,110.67" fill="none" id="Price-to-HUB" style="stroke:#181818;stroke-width:1;"/><polygon fill="#181818" points="285.13,110.67,276.13,106.67,280.13,110.67,276.13,114.67,285.13,110.67" style="stroke:#181818;stroke-width:1;stroke-linejoin:miter;stroke-miterlimit:10;"/></g><!--link HUB to KA--><g class="link" data-entity-1="ent0003" data-entity-2="ent0004" data-link-type="dependency" data-source-line="13" id="lnk9"><path d="M382.95,68.03 C397.25,56.11 414.18,44.72 432.02,38.48 C512.98,10.14 545.62,6 625.02,38.48 C651.51,49.31 670.6416,70.7618 683.4916,88.3618" fill="none" id="HUB-to-KA" style="stroke:#181818;stroke-width:1;"/><polygon fill="#181818" points="686.44,92.4,684.3635,82.7725,683.4916,88.3618,677.9024,87.4899,686.44,92.4" style="stroke:#181818;stroke-width:1;stroke-linejoin:miter;stroke-miterlimit:10;"/></g><!--link HUB to KB--><g class="link" data-entity-1="ent0003" data-entity-2="ent0005" data-link-type="dependency" data-source-line="14" id="lnk10"><path d="M382.95,68.03 C397.25,56.11 414.18,44.72 432.02,38.48 C465.16,26.88 478.47,25.29 511.02,38.48 C537.73,49.29 557.1705,70.7747 570.2305,88.3747" fill="none" id="HUB-to-KB" style="stroke:#181818;stroke-width:1;"/><polygon fill="#181818" points="573.21,92.39,571.0591,82.7789,570.2305,88.3747,564.6346,87.5461,573.21,92.39" style="stroke:#181818;stroke-width:1;stroke-linejoin:miter;stroke-miterlimit:10;"/></g><!--link HUB to KC--><g class="link" data-entity-1="ent0003" data-entity-2="ent0006" data-link-type="dependency" data-source-line="15" id="lnk11"><path d="M397.88,110.67 C409.1,110.67 415.32,110.67 426.54,110.67" fill="none" id="HUB-to-KC" style="stroke:#181818;stroke-width:1;"/><polygon fill="#181818" points="431.54,110.67,422.54,106.67,426.54,110.67,422.54,114.67,431.54,110.67" style="stroke:#181818;stroke-width:1;stroke-linejoin:miter;stroke-miterlimit:10;"/></g><?plantuml-src ROzD2i8m48NtESNGjLv1I28ePEF6NJOn33MWQPX95xczCIcrGZV3c_SzveVGPnV75y9mmS98mDDC7WTm3DqHzClSA7ZSHfeXjf5puEIoVoBPQECRQKI64DES-M0ZJNEk_QD0BgcFkDxLtm23cEeTia4ZTv3gIEqWtP4MOdddU6eB-k5B8shvQYC1LgrMfJy0?></g></svg>