<svg xmlns="http://www.w3.org/2000/svg" xmlns:xlink="http://www.w3.org/1999/xlink" contentStyleType="text/css" data-diagram-type="DESCRIPTION" height="146px" preserveAspectRatio="none" style="width:437px;height:146px;background:#FFFFFF;" version="1.1" viewBox="0 0 437 146" width="437px" zoomAndPan="magnify"><?plantuml $version$?><defs/><g><g class="title" data-source-line="1"><text fill="#000000" font-family="sans-serif" font-size="14" font-weight="700" lengthAdjust="spacing" textLength="129.9375" x="150.3257" y="23.1318">Transaction Egress</text></g><!--entity Keeper--><g class="entity" data-qualified-name="Keeper" data-source-line="2" id="ent0001"><rect fill="#F1F1F1" height="36.0986" rx="2.5" ry="2.5" style="stroke:#181818;stroke-width:0.5;" width="97.8066" x="7" y="96.2786"/><text fill="#000000" font-family="sans-serif" font-size="14" lengthAdjust="spacing" textLength="77.8066" x="17" y="119.4105">Keeper-TPU</text></g><!--entity Leader1--><g class="entity" data-qualified-name="Leader1" data-source-line="3" id="ent0002"><rect fill="#F1F1F1" height="36.0986" rx="2.5" ry="2.5" style="stroke:#181818;stroke-width:0.5;" width="71.3789" x="352.21" y="96.2786"/><text fill="#000000" font-family="sans-serif" font-size="14" lengthAdjust="spacing" textLength="51.3789" x="362.21" y="119.4105">Leader1</text></g><!--entity Leader2--><g class="entity" data-qualified-name="Leader2" data-source-line="4" id="ent0003"><rect fill="#F1F1F1" height="36.0986" rx="2.5" ry="2.5" style="stroke:#181818;stroke-width:0.5;" width="71.3789" x="246.21" y="96.2786"/><text fill="#000000" font-family="sans-serif" font-size="14" lengthAdjust="spacing" textLength="51.3789" x="256.21" y="119.4105">Leader2</text></g><!--entity Leader3--><g class="entity" data-qualified-name="Leader3" data-source-line="5" id="ent0004"><rect fill="#F1F1F1" height="36.0986" rx="2.5" ry="2.5" style="stroke:#181818;stroke-width:0.5;" width="71.3789" x="140.21" y="96.2786"/><text fill="#000000" font-family="sans-serif" font-size="14" lengthAdjust="spacing" textLength="51.3789" x="150.21" y="119.4105">Leader3</text></g><!--link Keeper to Leader1--><g class="link" data-entity-1="ent0001" data-entity-2="ent0002" data-link-type="dependency" data-source-line="7" id="lnk5"><path d="M80.29,95.9286 C96.41,84.9586 118.54,72.0586 140.4,66.2786 C216.46,46.1686 242.23,43.0986 317.4,66.2786 C336.37,72.1286 350.9472,81.8317 364.1972,92.7917" fill="none" id="Keeper-to-Leader1" style="stroke:#181818;stroke-width:1;"/><polygon fill="#181818" points="368.05,95.9786,363.6645,87.16,364.1972,92.7917,358.5655,93.3244,368.05,95.9786" style="stroke:#181818;stroke-width:1;stroke-linejoin:miter;stroke-miterlimit:10;"/></g><!--link Keeper to Leader2--><g class="link" data-entity-1="ent0001" data-entity-2="ent0003" data-link-type="dependency" data-source-line="8" id="lnk6"><path d="M80.29,95.9286 C96.41,84.9586 118.54,72.0586 140.4,66.2786 C170.91,58.2086 181.25,56.9786 211.4,66.2786 C230.37,72.1286 244.9472,81.8317 258.1972,92.7917" fill="none" id="Keeper-to-Leader2" style="stroke:#181818;stroke-width:1;"/><polygon fill="#181818" points="262.05,95.9786,257.6645,87.16,258.1972,92.7917,252.5655,93.3244,262.05,95.9786" style="stroke:#181818;stroke-width:1;stroke-linejoin:miter;stroke-miterlimit:10;"/></g><!--link Keeper to Leader3--><g class="link" data-entity-1="ent0001" data-entity-2="ent0004" data-link-type="dependency" data-source-line="9" id="lnk7"><path d="M105.12,114.3286 C116.73,114.3286 123.35,114.3286 134.96,114.3286" fill="none" id="Keeper-to-Leader3" style="stroke:#181818;stroke-width:1;"/><polygon fill="#181818" points="139.96,114.3286,130.96,110.3286,134.96,114.3286,130.96,118.3286,139.96,114.3286" style="stroke:#181818;stroke-width:1;stroke-linejoin:miter;stroke-miterlimit:10;"/></g><?plantuml-src AyaioKbL22bAp2jEJ2x9pCzJS4qlIYqkvYfAJIv9p4i7IYfvfwOMf1RfXWI4AYaa5Yj0k4WAV58JKrAB3354Z314ZBcu8BeLTEtWsj15Z314ZBa0?></g></svg>